# xmcd
#
# Track frame offsets: 
#        150
#        18695
#        33135
#        43387
#
# Disc length: 760 seconds
#
# Revision: 2
# Processed by: cddbd v1.5.2PL0 Copyright (c) Steve Scherf et al.
# Submitted via: ExactAudioCopyFreeDBPlugin 1.0
#
DISCID=2e02f604
DTITLE=Gary Moore - Need Your Love So Bad
DYEAR=1995
DGENRE=
TTITLE0=Need Your Love So Bad
TTITLE1=World Keep On Turning (Acoustic)
TTITLE2=The Same Way  (Acoustic)
TTITLE3=Stop Messin´ Around  (Acoustic)
EXTD=
EXTT0=
EXTT1=
EXTT2=
EXTT3=
PLAYORDER=
